# xmcd
#
# Track frame offsets:
#	150
#	13923
#	25671
#	37440
#	45862
#	57215
#	69050
#	79140
#	93765
#	106522
#	119297
#	139478
#	149909
#	160373
#	171353
#	187473
#	198015
#	212493
#	225426
#	236964
#	249429
#	262827
#	279717
#	291867
#
# Disc length: 4052 seconds
#
# Revision: 0
# Processed by: cddbd v1.5.2PL0 Copyright (c) Steve Scherf et al.
# Submitted via: EasyCDDAExtractor 16.0.1.1
#
DISCID=5c0fd218
DTITLE=Boxcar Willie - The Box Car Willie Collection
DYEAR=1900
DGENRE=Country
TTITLE0=Lost Highway
TTITLE1=We Made Memories
TTITLE2=S U C.K E R 
TTITLE3=Ain't No Record
TTITLE4=Tomorrow The Sun's Gonna Shine
TTITLE5=Sioux City Sue
TTITLE6=Living It Up In Washington D C 
TTITLE7=Blue  Blue Days
TTITLE8=Hee Haw Honey
TTITLE9=Booze, Broads And Bad Times
TTITLE10=I'm So Lonesome I Could Cry
TTITLE11=Your Tip's On The Table, Mable
TTITLE12=Tennessee Rain
TTITLE13=Atomic Bum
TTITLE14=Rebel Soldier
TTITLE15=Cattle Call
TTITLE16=I'm Mad
TTITLE17=Depressin' Recession Blues
TTITLE18=I Was Kind Of In The Neighborood
TTITLE19=Steamline Cannonball
TTITLE20=Everytime Yor Love Touched Me
TTITLE21=Mansion On The Hill
TTITLE22=The Old Iron Trail
TTITLE23=Waltz Across Texas
EXTD=
EXTT0=
EXTT1=
EXTT2=
EXTT3=
EXTT4=
EXTT5=
EXTT6=
EXTT7=
EXTT8=
EXTT9=
EXTT10=
EXTT11=
EXTT12=
EXTT13=
EXTT14=
EXTT15=
EXTT16=
EXTT17=
EXTT18=
EXTT19=
EXTT20=
EXTT21=
EXTT22=
EXTT23=
PLAYORDER=
